<?xml version="1.0" encoding="UTF-8"?>
<svg width="100" height="100" viewBox="0 0 100 100" xmlns="http://www.w3.org/2000/svg">
  <!-- Lotus Center -->
  <circle cx="50" cy="50" r="10" fill="#F9B234"/>
  
  <!-- Lotus Petals -->
  <path d="M50,40 Q60,35 50,20 Q40,35 50,40" fill="#D42D27"/>
  <path d="M60,50 Q65,40 80,50 Q65,60 60,50" fill="#D42D27"/>
  <path d="M50,60 Q60,65 50,80 Q40,65 50,60" fill="#D42D27"/>
  <path d="M40,50 Q35,40 20,50 Q35,60 40,50" fill="#D42D27"/>
  
  <!-- Decorative Dots -->
  <circle cx="50" cy="30" r="2" fill="#2A5A3B"/>
  <circle cx="70" cy="50" r="2" fill="#2A5A3B"/>
  <circle cx="50" cy="70" r="2" fill="#2A5A3B"/>
  <circle cx="30" cy="50" r="2" fill="#2A5A3B"/>
  
  <!-- Fine Lines -->
  <path d="M45,45 L55,55 M45,55 L55,45" stroke="#1A1A1A" stroke-width="0.5"/>
</svg> 