<?xml version="1.0" encoding="UTF-8"?>
<svg width="100" height="100" viewBox="0 0 100 100" xmlns="http://www.w3.org/2000/svg">
  <!-- Peacock Body -->
  <path d="M30,70 Q40,60 50,70 Q60,60 70,70" fill="#1B4B95"/>
  
  <!-- Peacock Tail -->
  <path d="M50,70 Q30,40 50,20 Q70,40 50,70" fill="none" stroke="#2A5A3B" stroke-width="1"/>
  
  <!-- Tail Feathers -->
  <circle cx="50" cy="30" r="5" fill="#F9B234"/>
  <circle cx="40" cy="40" r="5" fill="#F9B234"/>
  <circle cx="60" cy="40" r="5" fill="#F9B234"/>
  <circle cx="45" cy="50" r="5" fill="#F9B234"/>
  <circle cx="55" cy="50" r="5" fill="#F9B234"/>
  
  <!-- Decorative Elements -->
  <path d="M35,35 Q50,25 65,35" stroke="#D42D27" fill="none" stroke-width="0.5"/>
  <path d="M30,45 Q50,35 70,45" stroke="#D42D27" fill="none" stroke-width="0.5"/>
  <path d="M35,55 Q50,45 65,55" stroke="#D42D27" fill="none" stroke-width="0.5"/>
  
  <!-- Fine Details -->
  <circle cx="45" cy="65" r="1" fill="#1A1A1A"/>
  <circle cx="55" cy="65" r="1" fill="#1A1A1A"/>
</svg> 